<svg xmlns="http://www.w3.org/2000/svg" viewBox="0 0 1220 200"><title>cactus</title><line x1="1007.65" y1="200.07" x2="1007.5" y2="177" style="fill:none;stroke:#163d0e;stroke-miterlimit:10;stroke-width:2px"/><line x1="1035.5" y1="157" x2="1035.07" y2="200.07" style="fill:none;stroke:#163d0e;stroke-miterlimit:10;stroke-width:2px"/><path d="M1007.5,162l.15-48.62A13.55,13.55,0,0,1,1021.36,100h0a13.55,13.55,0,0,1,13.71,13.38v31.38" style="fill:none;stroke:#163d0e;stroke-miterlimit:10;stroke-width:2px"/><path d="M1035.07,156.53h18.29a8.41,8.41,0,0,0,8.64-8.14V122.32a7.28,7.28,0,0,0-7.49-7.06h0a7.28,7.28,0,0,0-7.49,7.06v20.91h-12" style="fill:none;stroke:#163d0e;stroke-miterlimit:10;stroke-width:2px"/><path d="M1018.59,176.08H991.51a8.4,8.4,0,0,1-8.64-8.14V133.18a7.28,7.28,0,0,1,7.49-7.06h0a7.29,7.29,0,0,1,7.49,7.06v29.6h20.74" style="fill:none;stroke:#163d0e;stroke-miterlimit:10;stroke-width:2px"/><line x1="1114.47" y1="199.07" x2="1114" y2="159" style="fill:none;stroke:#333;stroke-linecap:round;stroke-linejoin:round;stroke-width:2px"/><line x1="1163" y1="122" x2="1162.72" y2="199.07" style="fill:none;stroke:#333;stroke-linecap:round;stroke-linejoin:round;stroke-width:2px"/><path d="M1114.47,133.45V45.74c0-12.56,10.8-22.74,24.12-22.74h0c13.33,0,24.13,10.18,24.13,22.74V99.06" style="fill:none;stroke:#333;stroke-linecap:round;stroke-linejoin:round;stroke-width:2px"/><path d="M1163,122l20.74.47h11.15c8.4,0,15.21-6.42,15.21-14.33V62.27c0-6.86-5.91-12.42-13.18-12.42h0c-7.28,0-13.18,5.56-13.18,12.42V99.06h-21" style="fill:none;stroke:#333;stroke-linecap:round;stroke-linejoin:round;stroke-width:2px"/><path d="M1133.72,156.87h-47.65c-8.4,0-15.2-6.42-15.2-14.34V81.38c0-6.86,5.9-12.42,13.17-12.42h0c7.28,0,13.18,5.56,13.18,12.42v52.08h36.5" style="fill:none;stroke:#333;stroke-linecap:round;stroke-linejoin:round;stroke-width:2px"/><line x1="21.11" y1="155.81" x2="21.11" y2="199.73" style="fill:none;stroke:#333;stroke-linecap:round;stroke-linejoin:round;stroke-width:2px"/><polyline points="11.49 177.96 11.49 187.79 21.11 187.79" style="fill:none;stroke:#333;stroke-linecap:round;stroke-linejoin:round;stroke-width:2px"/><polyline points="21.11 177.96 32.11 177.96 32.11 168.81" style="fill:none;stroke:#333;stroke-linecap:round;stroke-linejoin:round;stroke-width:2px"/><path d="M69.89,199.21V136.13a9.84,9.84,0,0,1,9.82-9.82h0a9.84,9.84,0,0,1,9.82,9.82v11.8" style="fill:none;stroke:#333;stroke-linecap:round;stroke-linejoin:round;stroke-width:2px"/><path d="M103.41,199.21V156.78a9.82,9.82,0,1,0-19.64,0v42.43" style="fill:none;stroke:#333;stroke-linecap:round;stroke-linejoin:round;stroke-width:2px"/><path d="M69.89,199.21V152.42a9.82,9.82,0,0,0-19.64,0v46.79" style="fill:none;stroke:#333;stroke-linecap:round;stroke-linejoin:round;stroke-width:2px"/><line x1="93.59" y1="146.96" x2="93.59" y2="142.6" style="fill:none;stroke:#333;stroke-linecap:round;stroke-linejoin:round;stroke-width:2px"/><line x1="100.26" y1="149.6" x2="102.31" y2="146.96" style="fill:none;stroke:#333;stroke-linecap:round;stroke-linejoin:round;stroke-width:2px"/><line x1="103.41" y1="156.78" x2="106.76" y2="156.78" style="fill:none;stroke:#333;stroke-linecap:round;stroke-linejoin:round;stroke-width:2px"/><line x1="103.41" y1="166.8" x2="106.76" y2="166.8" style="fill:none;stroke:#333;stroke-linecap:round;stroke-linejoin:round;stroke-width:2px"/><line x1="103.41" y1="176.82" x2="106.76" y2="176.82" style="fill:none;stroke:#333;stroke-linecap:round;stroke-linejoin:round;stroke-width:2px"/><line x1="103.41" y1="186.84" x2="106.76" y2="186.84" style="fill:none;stroke:#333;stroke-linecap:round;stroke-linejoin:round;stroke-width:2px"/><line x1="86.92" y1="149.6" x2="84.88" y2="146.96" style="fill:none;stroke:#333;stroke-linecap:round;stroke-linejoin:round;stroke-width:2px"/><line x1="79.71" y1="124.76" x2="79.71" y2="120.4" style="fill:none;stroke:#333;stroke-linecap:round;stroke-linejoin:round;stroke-width:2px"/><line x1="86.38" y1="127.4" x2="88.42" y2="124.76" style="fill:none;stroke:#333;stroke-linecap:round;stroke-linejoin:round;stroke-width:2px"/><line x1="73.04" y1="127.4" x2="70.99" y2="124.76" style="fill:none;stroke:#333;stroke-linecap:round;stroke-linejoin:round;stroke-width:2px"/><line x1="83.77" y1="156.78" x2="80.42" y2="156.78" style="fill:none;stroke:#333;stroke-linecap:round;stroke-linejoin:round;stroke-width:2px"/><line x1="89.53" y1="136.06" x2="92.88" y2="136.06" style="fill:none;stroke:#333;stroke-linecap:round;stroke-linejoin:round;stroke-width:2px"/><line x1="69.89" y1="136.06" x2="66.54" y2="136.06" style="fill:none;stroke:#333;stroke-linecap:round;stroke-linejoin:round;stroke-width:2px"/><line x1="83.77" y1="166.8" x2="80.42" y2="166.8" style="fill:none;stroke:#333;stroke-linecap:round;stroke-linejoin:round;stroke-width:2px"/><line x1="83.77" y1="176.82" x2="80.42" y2="176.82" style="fill:none;stroke:#333;stroke-linecap:round;stroke-linejoin:round;stroke-width:2px"/><line x1="83.77" y1="186.84" x2="80.42" y2="186.84" style="fill:none;stroke:#333;stroke-linecap:round;stroke-linejoin:round;stroke-width:2px"/><line x1="60.07" y1="141.87" x2="60.07" y2="138.61" style="fill:none;stroke:#333;stroke-linecap:round;stroke-linejoin:round;stroke-width:2px"/><line x1="53.4" y1="143.93" x2="51.35" y2="141.29" style="fill:none;stroke:#333;stroke-linecap:round;stroke-linejoin:round;stroke-width:2px"/><line x1="50.25" y1="151.11" x2="46.9" y2="151.11" style="fill:none;stroke:#333;stroke-linecap:round;stroke-linejoin:round;stroke-width:2px"/><line x1="50.25" y1="161.13" x2="46.9" y2="161.13" style="fill:none;stroke:#333;stroke-linecap:round;stroke-linejoin:round;stroke-width:2px"/><line x1="50.25" y1="171.15" x2="46.9" y2="171.15" style="fill:none;stroke:#333;stroke-linecap:round;stroke-linejoin:round;stroke-width:2px"/><line x1="50.25" y1="181.17" x2="46.9" y2="181.17" style="fill:none;stroke:#333;stroke-linecap:round;stroke-linejoin:round;stroke-width:2px"/><line x1="50.25" y1="191.2" x2="46.9" y2="191.2" style="fill:none;stroke:#333;stroke-linecap:round;stroke-linejoin:round;stroke-width:2px"/><line x1="93.59" y1="153.42" x2="93.59" y2="156.13" style="fill:none;stroke:#333;stroke-linecap:round;stroke-linejoin:round;stroke-width:2px"/><line x1="93.59" y1="161.77" x2="93.59" y2="164.48" style="fill:none;stroke:#333;stroke-linecap:round;stroke-linejoin:round;stroke-width:2px"/><line x1="93.59" y1="170.12" x2="93.59" y2="172.83" style="fill:none;stroke:#333;stroke-linecap:round;stroke-linejoin:round;stroke-width:2px"/><line x1="93.59" y1="178.47" x2="93.59" y2="181.19" style="fill:none;stroke:#333;stroke-linecap:round;stroke-linejoin:round;stroke-width:2px"/><line x1="93.59" y1="186.82" x2="93.59" y2="189.54" style="fill:none;stroke:#333;stroke-linecap:round;stroke-linejoin:round;stroke-width:2px"/><line x1="60.07" y1="150.71" x2="60.07" y2="153.42" style="fill:none;stroke:#333;stroke-linecap:round;stroke-linejoin:round;stroke-width:2px"/><line x1="60.07" y1="159.06" x2="60.07" y2="161.77" style="fill:none;stroke:#333;stroke-linecap:round;stroke-linejoin:round;stroke-width:2px"/><line x1="79.71" y1="134.71" x2="79.71" y2="137.42" style="fill:none;stroke:#333;stroke-linecap:round;stroke-linejoin:round;stroke-width:2px"/><line x1="79.71" y1="143.06" x2="79.71" y2="145.77" style="fill:none;stroke:#333;stroke-linecap:round;stroke-linejoin:round;stroke-width:2px"/><line x1="60.07" y1="167.41" x2="60.07" y2="170.12" style="fill:none;stroke:#333;stroke-linecap:round;stroke-linejoin:round;stroke-width:2px"/><line x1="60.07" y1="175.76" x2="60.07" y2="178.47" style="fill:none;stroke:#333;stroke-linecap:round;stroke-linejoin:round;stroke-width:2px"/><line x1="60.07" y1="184.11" x2="60.07" y2="186.82" style="fill:none;stroke:#333;stroke-linecap:round;stroke-linejoin:round;stroke-width:2px"/><line x1="60.07" y1="192.46" x2="60.07" y2="195.17" style="fill:none;stroke:#333;stroke-linecap:round;stroke-linejoin:round;stroke-width:2px"/><line x1="173.05" y1="199.56" x2="173.05" y2="165.44" style="fill:none;stroke:#333;stroke-linecap:round;stroke-linejoin:round;stroke-width:2px"/><line x1="136.29" y1="137.64" x2="136.29" y2="199.56" style="fill:none;stroke:#333;stroke-linecap:round;stroke-linejoin:round;stroke-width:2px"/><path d="M173.05,146.52V29.38A18.38,18.38,0,0,0,154.67,11h0a18.37,18.37,0,0,0-18.38,18.38v89.33" style="fill:none;stroke:#333;stroke-linecap:round;stroke-linejoin:round;stroke-width:2px"/><path d="M136.29,137.64H111.77a11.59,11.59,0,0,1-11.58-11.59V89a10,10,0,0,1,10-10h0a10,10,0,0,1,10,10v29.74h16" style="fill:none;stroke:#333;stroke-linecap:round;stroke-linejoin:round;stroke-width:2px"/><path d="M158.38,165.44h36.3a11.58,11.58,0,0,0,11.59-11.58V104.42a10,10,0,0,0-10-10h0a10,10,0,0,0-10,10v42.1H158.38" style="fill:none;stroke:#333;stroke-linecap:round;stroke-linejoin:round;stroke-width:2px"/><path d="M218.68,199.56a26.72,26.72,0,1,1,34.75,0" style="fill:none;stroke:#333;stroke-linecap:round;stroke-linejoin:round;stroke-width:2px"/><path d="M236,152.53s-21.47,14.74-8.49,44.78" style="fill:none;stroke:#333;stroke-linecap:round;stroke-linejoin:round;stroke-width:2px"/><path d="M236,152.53s21.48,14.74,8.49,44.78" style="fill:none;stroke:#333;stroke-linecap:round;stroke-linejoin:round;stroke-width:2px"/><path d="M1091.91,178.37c-4.25,0-7.7,3.18-7.7,7.11,0,3.26,1.6,10.75,4.84,13.2a2.94,2.94,0,0,1,5.71,0c3.24-2.45,4.84-9.94,4.84-13.2C1099.6,181.55,1096.15,178.37,1091.91,178.37Z" style="fill:none;stroke:#333;stroke-linecap:round;stroke-linejoin:round;stroke-width:2px"/><path d="M1089.41,187.06a1.45,1.45,0,0,1-1.5,1.4c-.84,0-1.51-1.34-1.51-2.11s.67-.68,1.51-.68A1.45,1.45,0,0,1,1089.41,187.06Z" style="fill:none;stroke:#333;stroke-linecap:round;stroke-linejoin:round;stroke-width:2px"/><path d="M1094.4,187.06a1.46,1.46,0,0,0,1.51,1.4c.83,0,1.5-1.34,1.5-2.11s-.67-.68-1.5-.68A1.45,1.45,0,0,0,1094.4,187.06Z" style="fill:none;stroke:#333;stroke-linecap:round;stroke-linejoin:round;stroke-width:2px"/><path d="M1090.47,178.5s-9.94,3.08-13-7.5c0,0-3.1,9.87,7.51,11.5" style="fill:none;stroke:#333;stroke-linecap:round;stroke-linejoin:round;stroke-width:2px"/><path d="M1093.35,178.5s9.93,3.08,13-7.5c0,0,3.1,9.87-7.51,11.5" style="fill:none;stroke:#333;stroke-linecap:round;stroke-linejoin:round;stroke-width:2px"/><line x1="1056.18" y1="168" x2="1056.18" y2="198.73" style="fill:none;stroke:#333;stroke-linecap:round;stroke-linejoin:round;stroke-width:2px"/><polyline points="1051 183.5 1051 190.38 1056.18 190.38" style="fill:none;stroke:#333;stroke-linecap:round;stroke-linejoin:round;stroke-width:2px"/><polyline points="1056.18 183.5 1062.11 183.5 1062.11 177.1" style="fill:none;stroke:#333;stroke-linecap:round;stroke-linejoin:round;stroke-width:2px"/></svg>