<svg xmlns="http://www.w3.org/2000/svg" xmlns:xlink="http://www.w3.org/1999/xlink" viewBox="0 0 339.72 37.13"><defs><symbol id="a" viewBox="0 0 35.01 35.01"><polygon points="20.5 20.33 35.01 22.27 21.22 16.46 27.89 11.4 20.34 14.45 22.27 0 16.62 13.41 11.71 6.94 14.85 14.72 0 12.74 13.46 18.41 7.25 23.12 14.73 20.1 12.74 35.01 18.57 21.17 23.43 27.57 20.5 20.33" style="fill:#f2f3f4;opacity:0.5"/></symbol></defs><title>nightsky</title><use width="35.01" height="35.01" transform="translate(339.04 32.89) rotate(-167.21) scale(0.24)" xlink:href="#a"/><use width="35.01" height="35.01" transform="translate(113.73 32.89) rotate(-167.21) scale(0.24)" xlink:href="#a"/><use width="35.01" height="35.01" transform="matrix(-0.14, 0.08, -0.08, -0.14, 176.39, 5.67)" xlink:href="#a"/><use width="35.01" height="35.01" transform="translate(233.6 32.65) rotate(165.29) scale(0.14)" xlink:href="#a"/><use width="35.01" height="35.01" transform="translate(69.06 2.74) rotate(165.29) scale(0.09)" xlink:href="#a"/><use width="35.01" height="35.01" transform="translate(132.63 8.35) rotate(165.29) scale(0.09)" xlink:href="#a"/><use width="35.01" height="35.01" transform="translate(169.09 32.65) rotate(165.29) scale(0.14)" xlink:href="#a"/><use width="35.01" height="35.01" transform="translate(267.09 12.65) rotate(165.29) scale(0.14)" xlink:href="#a"/><use width="35.01" height="35.01" transform="translate(304.09 4.65) rotate(165.29) scale(0.14)" xlink:href="#a"/><use width="35.01" height="35.01" transform="translate(201.81 21.43) rotate(165.29) scale(0.14)" xlink:href="#a"/><use width="35.01" height="35.01" transform="matrix(0.05, 0.14, -0.14, 0.05, 304.05, 30.94)" xlink:href="#a"/><path d="M34.47,27.91a10.14,10.14,0,1,1-7.24-18.2,12.88,12.88,0,1,0,9.7,15.56A10.24,10.24,0,0,1,34.47,27.91Z" transform="translate(-11.55 -8.12)" style="fill:#cccdce"/></svg>